<?xml version="1.0" encoding="utf-8"?>
<!-- Generator: Adobe Illustrator 28.2.0, SVG Export Plug-In . SVG Version: 6.00 Build 0)  -->
<svg version="1.1" id="Ebene_1" xmlns="http://www.w3.org/2000/svg" xmlns:xlink="http://www.w3.org/1999/xlink" x="0px" y="0px"
	 viewBox="0 0 1500 500" style="enable-background:new 0 0 1500 500;" xml:space="preserve">
<style type="text/css">
	.st0{fill:#1C1C1C;}
	.st1{fill:#D32222;}
</style>
<g>
	<path class="st0" d="M162.58,112.71c67.88,0,116.2,39.12,129.63,100.48h-80.92c-9.59-20.33-27.61-31.45-49.86-31.45
		c-34.52,0-57.14,26.85-57.14,68.27c0,41.8,22.63,68.65,57.14,68.65c22.24,0,40.27-11.12,49.86-31.45h80.92
		c-13.42,61.36-61.75,100.48-129.63,100.48c-81.31,0-134.61-56.76-134.61-137.68C27.97,169.47,81.28,112.71,162.58,112.71z"/>
	<path class="st0" d="M327.88,115.39h75.17v270.38h-75.17V115.39z"/>
	<path class="st0" d="M696.43,115.39v270.38h-75.17l-100.1-151.1v151.1H446V115.39h75.17l100.1,153.02V115.39H696.43z"/>
	<path class="st0" d="M912.35,175.6h-97.8v44.1h86.29v57.14h-86.29v48.71h97.8v60.21H739.39V115.39h172.96V175.6z"/>
	<path class="st0" d="M949.55,115.39h183.32v59.83h-108.15v47.56h79.77v57.14h-79.77v105.85h-75.17V115.39z"/>
	<path class="st0" d="M1144.75,115.39h85.91l47.56,104.32l47.56-104.32h84.76l-95.11,184.47v85.91h-75.55v-85.91L1144.75,115.39z"/>
</g>
<circle class="st1" cx="1433.48" cy="345.84" r="38.76"/>
</svg>
